<svg xmlns="http://www.w3.org/2000/svg" xmlns:xlink="http://www.w3.org/1999/xlink" width="600.62" height="358.69" viewBox="0 0 600.62 358.69">
  <defs>
    <clipPath id="clip-path">
      <path id="Path_17" data-name="Path 17" d="M30.68-5.31a7.446,7.446,0,0,0,.177,1.77,2.145,2.145,0,0,0,.767,1.18,4.142,4.142,0,0,0,1.77.708q1.18.236,3.186.472V0H1.77V-1.18q2.006-.236,3.186-.472a4.142,4.142,0,0,0,1.77-.708,2.145,2.145,0,0,0,.767-1.18A7.447,7.447,0,0,0,7.67-5.31V-76.7a13.956,13.956,0,0,0-.177-2.478,2.544,2.544,0,0,0-.767-1.475,4.125,4.125,0,0,0-1.77-.826A26.5,26.5,0,0,0,1.77-82.01v-1.18L29.5-86.14h1.18ZM70.8-60.18a37.1,37.1,0,0,1,9.145,1.121,22.774,22.774,0,0,1,7.729,3.481,17.349,17.349,0,0,1,5.31,6.2A19.767,19.767,0,0,1,94.99-40.12a41.329,41.329,0,0,1-.708,7.08H61.95v1.18a39.411,39.411,0,0,0,1.711,12.567,22.207,22.207,0,0,0,4.425,7.965A15.638,15.638,0,0,0,74.1-7.139,18.706,18.706,0,0,0,80.712-5.9a18.04,18.04,0,0,0,7.847-1.711,27.225,27.225,0,0,0,5.959-3.717l.472,1.062q-.708.708-2.419,2.6a23.854,23.854,0,0,1-4.72,3.835A33.935,33.935,0,0,1,80.3-.354,33.44,33.44,0,0,1,69.62,1.18,33.491,33.491,0,0,1,56.227-1.3a28.038,28.038,0,0,1-9.558-6.608,27.564,27.564,0,0,1-5.782-9.558A33.642,33.642,0,0,1,38.94-28.91a29.435,29.435,0,0,1,2.891-13.334,31.53,31.53,0,0,1,7.493-9.794A32.382,32.382,0,0,1,59.59-58.115,32.566,32.566,0,0,1,70.8-60.18ZM70.21-59q-4.248,0-6.2,6.136T61.95-34.22H75.284a34.12,34.12,0,0,0,.59-3.422q.236-1.888.413-3.54t.295-3.009q.118-1.357.118-1.829a24.986,24.986,0,0,0-.708-6.549,14.032,14.032,0,0,0-1.652-3.953,5.188,5.188,0,0,0-2.124-1.947A5.08,5.08,0,0,0,70.21-59Zm82.6,51.33a2.5,2.5,0,0,0,.59,1.652,2.172,2.172,0,0,0,1.77.708,4.951,4.951,0,0,0,2.006-.472,16.169,16.169,0,0,0,2.006-1.062l.118.944a36.513,36.513,0,0,1-8.319,5.074A25.011,25.011,0,0,1,140.774,1.18q-5.546,0-8.26-2.419A7.55,7.55,0,0,1,129.8-7.08V-8.26h-.236A17.9,17.9,0,0,1,122.838-1.3,18.616,18.616,0,0,1,113.28,1.18q-6.726,0-10.443-4.071A14.4,14.4,0,0,1,99.12-12.98a15.3,15.3,0,0,1,1.3-5.841,15.349,15.349,0,0,1,4.72-5.9,29.359,29.359,0,0,1,9.381-4.72A60.013,60.013,0,0,1,129.8-31.86v-11.8a17.556,17.556,0,0,0-.59-4.484,11.784,11.784,0,0,0-1.888-4.012,9.46,9.46,0,0,0-3.363-2.832,11.148,11.148,0,0,0-5.133-1.062,12.429,12.429,0,0,0-3.127.413,9.919,9.919,0,0,0-2.95,1.3,6.987,6.987,0,0,0-2.183,2.242,5.893,5.893,0,0,0-.826,3.127,4.723,4.723,0,0,0,1.18,3.3,16.988,16.988,0,0,0,2.655,2.36q1.475,1.062,2.655,2.065a2.963,2.963,0,0,1,1.18,2.3,4.465,4.465,0,0,1-2.3,3.776,10.551,10.551,0,0,1-5.959,1.534,11.175,11.175,0,0,1-5.723-1.475q-2.537-1.475-2.537-5.015a13.491,13.491,0,0,1,1.829-6.077,23.51,23.51,0,0,1,5.369-6.608,30.5,30.5,0,0,1,8.732-5.251,30.938,30.938,0,0,1,11.8-2.124,33.385,33.385,0,0,1,10.325,1.475,23.565,23.565,0,0,1,7.611,3.953,17.4,17.4,0,0,1,4.72,5.782,14.568,14.568,0,0,1,1.534,7.08ZM129.8-30.68a8.649,8.649,0,0,0-2.6.944,6.885,6.885,0,0,0-2.3,2.124,12.171,12.171,0,0,0-1.652,3.658,20.764,20.764,0,0,0-.649,5.664q0,5.428,1.475,7.434a4.263,4.263,0,0,0,3.481,2.006,3.738,3.738,0,0,0,1.357-.177q.413-.177.885-.413Zm31.86,29.5q2.006-.236,3.186-.472a4.142,4.142,0,0,0,1.77-.708,2.145,2.145,0,0,0,.767-1.18,7.447,7.447,0,0,0,.177-1.77V-50.74a13.956,13.956,0,0,0-.177-2.478,2.544,2.544,0,0,0-.767-1.475,4.125,4.125,0,0,0-1.77-.826,26.5,26.5,0,0,0-3.186-.531v-1.18l27.73-2.95h1.18l-.59,13.57h.59q1.062-2.6,2.36-5.074a22.322,22.322,0,0,1,2.95-4.366,12.874,12.874,0,0,1,3.835-3.009,10.826,10.826,0,0,1,5.015-1.121,8.25,8.25,0,0,1,3.127.649,8.514,8.514,0,0,1,2.832,1.888,10.068,10.068,0,0,1,2.065,3.127,10.807,10.807,0,0,1,.826,4.366,9.029,9.029,0,0,1-.708,3.481,10.993,10.993,0,0,1-1.829,3.009,9.3,9.3,0,0,1-2.655,2.124,6.421,6.421,0,0,1-3.068.826,6.429,6.429,0,0,1-3.894-1.121,13.993,13.993,0,0,1-2.6-2.419q-1.062-1.3-2.006-2.419A2.746,2.746,0,0,0,194.7-47.79q-1.652,0-4.13,2.36V-5.31a5.669,5.669,0,0,0,.236,1.77,2.178,2.178,0,0,0,1.062,1.18,7.23,7.23,0,0,0,2.478.708q1.652.236,4.484.472V0H161.66Zm54.28,0q2.006-.236,3.186-.472a4.142,4.142,0,0,0,1.77-.708,2.145,2.145,0,0,0,.767-1.18,7.447,7.447,0,0,0,.177-1.77V-50.74a13.956,13.956,0,0,0-.177-2.478,2.544,2.544,0,0,0-.767-1.475,4.125,4.125,0,0,0-1.77-.826,26.5,26.5,0,0,0-3.186-.531v-1.18l27.73-2.95h1.18l-.59,12.39h.59a40.278,40.278,0,0,1,9.086-8.85A19.719,19.719,0,0,1,265.5-60.18a20.966,20.966,0,0,1,6.313.944,13.33,13.33,0,0,1,5.251,3.068,15.318,15.318,0,0,1,3.6,5.487,21.951,21.951,0,0,1,1.357,8.2V-5.31a7.448,7.448,0,0,0,.177,1.77,2.145,2.145,0,0,0,.767,1.18,4.143,4.143,0,0,0,1.77.708q1.18.236,3.186.472V0H254.29V-1.18a8.958,8.958,0,0,0,3.894-1.18q.826-.708.826-2.95V-43.66q0-7.67-5.9-7.67a7.364,7.364,0,0,0-4.72,1.593,41.545,41.545,0,0,0-3.54,3.127v41.3a7.446,7.446,0,0,0,.177,1.77,2.145,2.145,0,0,0,.767,1.18,4.142,4.142,0,0,0,1.77.708q1.18.236,3.186.472V0H215.94ZM294.41-74.1q0-5.31,3.717-7.965a15.123,15.123,0,0,1,9.027-2.655,14.857,14.857,0,0,1,8.968,2.655q3.658,2.655,3.658,7.965t-3.658,7.847a15.351,15.351,0,0,1-8.968,2.537,15.629,15.629,0,0,1-9.027-2.537Q294.41-68.794,294.41-74.1ZM319.19-5.31a7.446,7.446,0,0,0,.177,1.77,2.145,2.145,0,0,0,.767,1.18,4.142,4.142,0,0,0,1.77.708q1.18.236,3.186.472V0H290.28V-1.18q2.006-.236,3.186-.472a4.143,4.143,0,0,0,1.77-.708A2.145,2.145,0,0,0,296-3.54a7.446,7.446,0,0,0,.177-1.77V-50.74A13.955,13.955,0,0,0,296-53.218a2.544,2.544,0,0,0-.767-1.475,4.125,4.125,0,0,0-1.77-.826,26.5,26.5,0,0,0-3.186-.531v-1.18l27.73-2.95h1.18Zm8.26,4.13q2.006-.236,3.186-.472a4.143,4.143,0,0,0,1.77-.708,2.145,2.145,0,0,0,.767-1.18,7.446,7.446,0,0,0,.177-1.77V-50.74a13.955,13.955,0,0,0-.177-2.478,2.544,2.544,0,0,0-.767-1.475,4.125,4.125,0,0,0-1.77-.826,26.5,26.5,0,0,0-3.186-.531v-1.18l27.73-2.95h1.18l-.59,12.39h.59a40.278,40.278,0,0,1,9.086-8.85,19.719,19.719,0,0,1,11.564-3.54,20.966,20.966,0,0,1,6.313.944,13.33,13.33,0,0,1,5.251,3.068,15.318,15.318,0,0,1,3.6,5.487,21.951,21.951,0,0,1,1.357,8.2V-5.31a7.446,7.446,0,0,0,.177,1.77,2.145,2.145,0,0,0,.767,1.18,4.142,4.142,0,0,0,1.77.708q1.18.236,3.186.472V0H365.8V-1.18a8.958,8.958,0,0,0,3.894-1.18q.826-.708.826-2.95V-43.66q0-7.67-5.9-7.67a7.364,7.364,0,0,0-4.72,1.593,41.545,41.545,0,0,0-3.54,3.127v41.3a7.446,7.446,0,0,0,.177,1.77,2.145,2.145,0,0,0,.767,1.18,4.142,4.142,0,0,0,1.77.708q1.18.236,3.186.472V0H327.45ZM429.52-19.47a37.522,37.522,0,0,1-11.21-1.652A16.255,16.255,0,0,0,416.835-19a4.029,4.029,0,0,0-.531,2.006,2.825,2.825,0,0,0,1.121,2.065q1.121,1,4.189,1.121l20.178.826a28.337,28.337,0,0,1,9.735,1.888,19.71,19.71,0,0,1,6.431,4.13,14.508,14.508,0,0,1,3.54,5.546A18.655,18.655,0,0,1,462.56,4.72a14.945,14.945,0,0,1-2.891,9.263,20.693,20.693,0,0,1-7.906,6.2,44.909,44.909,0,0,1-11.918,3.481A94.071,94.071,0,0,1,424.8,24.78a65.819,65.819,0,0,1-10.089-.708,36.069,36.069,0,0,1-7.788-2.006,13.533,13.533,0,0,1-5.074-3.3,6.494,6.494,0,0,1-1.829-4.484,4.661,4.661,0,0,1,1.593-3.422,17.746,17.746,0,0,1,3.717-2.714A31.164,31.164,0,0,1,409.7,6.136q2.242-.826,3.658-1.3-1.062-.354-2.655-1.062a10.786,10.786,0,0,1-3.068-2.124,11.862,11.862,0,0,1-2.478-3.54,12.1,12.1,0,0,1-1-5.192,8.976,8.976,0,0,1,1.357-4.72,18.746,18.746,0,0,1,3.422-4.13,28.956,28.956,0,0,1,4.366-3.3,34.58,34.58,0,0,1,4.189-2.242,23.57,23.57,0,0,1-10.03-6.785,17.054,17.054,0,0,1-3.894-11.505,17.591,17.591,0,0,1,1.888-8.083,19.915,19.915,0,0,1,5.31-6.49,25.018,25.018,0,0,1,8.2-4.307A34.421,34.421,0,0,1,429.52-60.18a35.382,35.382,0,0,1,7.611.767,31.278,31.278,0,0,1,6.313,2.065l17.936-1.77v7.67l-16.048-4.838a18.751,18.751,0,0,1,7.257,7.316,18.8,18.8,0,0,1,2.3,8.85,18.43,18.43,0,0,1-1.829,8.142,19.674,19.674,0,0,1-5.133,6.549,24.635,24.635,0,0,1-7.965,4.366A32.161,32.161,0,0,1,429.52-19.47Zm-15.1,24.426a25.553,25.553,0,0,0-.59,2.832,18.721,18.721,0,0,0-.236,2.832,14.641,14.641,0,0,0,1.239,6.431A9.785,9.785,0,0,0,418.192,21a13.975,13.975,0,0,0,4.9,2.006,28.012,28.012,0,0,0,5.841.59,26.725,26.725,0,0,0,5.251-.531,15.4,15.4,0,0,0,4.779-1.77,10.779,10.779,0,0,0,3.422-3.068,7.652,7.652,0,0,0,1.3-4.543,6.161,6.161,0,0,0-2.36-5.074,10.287,10.287,0,0,0-5.9-2.124ZM424.21-41.3a79.69,79.69,0,0,0,.59,10.915,28.2,28.2,0,0,0,1.475,6.254,6.036,6.036,0,0,0,1.888,2.832,3.588,3.588,0,0,0,1.947.649q3.068,0,3.6-4.6a120.722,120.722,0,0,0,.531-12.98,93.6,93.6,0,0,0-.472-10.5,37.2,37.2,0,0,0-1.18-6.313,6.887,6.887,0,0,0-1.652-3.127A3,3,0,0,0,428.93-59q-2.478,0-3.6,3.953T424.21-41.3ZM495.6-74.1q0-5.31,3.717-7.965a15.123,15.123,0,0,1,9.027-2.655,14.857,14.857,0,0,1,8.968,2.655q3.658,2.655,3.658,7.965t-3.658,7.847a15.351,15.351,0,0,1-8.968,2.537,15.629,15.629,0,0,1-9.027-2.537Q495.6-68.794,495.6-74.1ZM520.38-5.31a7.448,7.448,0,0,0,.177,1.77,2.144,2.144,0,0,0,.767,1.18,4.142,4.142,0,0,0,1.77.708q1.18.236,3.186.472V0H491.47V-1.18q2.006-.236,3.186-.472a4.143,4.143,0,0,0,1.77-.708,2.145,2.145,0,0,0,.767-1.18,7.446,7.446,0,0,0,.177-1.77V-50.74a13.955,13.955,0,0,0-.177-2.478,2.544,2.544,0,0,0-.767-1.475,4.125,4.125,0,0,0-1.77-.826,26.5,26.5,0,0,0-3.186-.531v-1.18l27.73-2.95h1.18Zm8.26,4.13q2.006-.236,3.186-.472a4.143,4.143,0,0,0,1.77-.708,2.145,2.145,0,0,0,.767-1.18,7.448,7.448,0,0,0,.177-1.77V-50.74a13.958,13.958,0,0,0-.177-2.478,2.544,2.544,0,0,0-.767-1.475,4.125,4.125,0,0,0-1.77-.826,26.5,26.5,0,0,0-3.186-.531v-1.18l27.73-2.95h1.18l-.59,12.39h.59a40.279,40.279,0,0,1,9.086-8.85A19.719,19.719,0,0,1,578.2-60.18a20.967,20.967,0,0,1,6.313.944,13.331,13.331,0,0,1,5.251,3.068,15.318,15.318,0,0,1,3.6,5.487,21.951,21.951,0,0,1,1.357,8.2V-5.31a7.448,7.448,0,0,0,.177,1.77,2.144,2.144,0,0,0,.767,1.18,4.143,4.143,0,0,0,1.77.708q1.18.236,3.186.472V0H566.99V-1.18a8.958,8.958,0,0,0,3.894-1.18q.826-.708.826-2.95V-43.66q0-7.67-5.9-7.67a7.364,7.364,0,0,0-4.72,1.593,41.54,41.54,0,0,0-3.54,3.127v41.3a7.448,7.448,0,0,0,.177,1.77,2.144,2.144,0,0,0,.767,1.18,4.142,4.142,0,0,0,1.77.708q1.18.236,3.186.472V0H528.64ZM86.975,114.575a65.675,65.675,0,0,1,19.17-19.525q11-7.1,26.98-7.1,16.685,0,29.82,6.923a66.708,66.708,0,0,1,22.365,19.17,87.466,87.466,0,0,1,14.022,29.288,135.926,135.926,0,0,1,4.793,36.92q0,21.3-6.923,38.34A86.811,86.811,0,0,1,178.21,247.7a81.17,81.17,0,0,1-28.755,18.46,99.4,99.4,0,0,1-35.855,6.39,104.078,104.078,0,0,1-29.82-4.437q-14.91-4.438-28.755-16.862L21.3,270.775H17.75V38.25a41.987,41.987,0,0,0-.532-7.455,7.655,7.655,0,0,0-2.307-4.438,12.411,12.411,0,0,0-5.325-2.485A79.717,79.717,0,0,0,0,22.275v-3.55L83.425,9.85h3.55L85.2,114.575Zm14.2-1.775a23.486,23.486,0,0,0-6.745,1.065,22.1,22.1,0,0,0-7.455,4.26v110.05q0,13.845,2.308,21.832t5.68,11.715a14.269,14.269,0,0,0,6.923,4.615,26.621,26.621,0,0,0,6.39.888q6.745,0,11.183-6.745t7.1-18.283a173.835,173.835,0,0,0,3.727-26.625q1.065-15.088,1.065-31.773a197.309,197.309,0,0,0-2.307-32.66q-2.308-13.49-6.39-22.01T113.068,116.7A20.143,20.143,0,0,0,101.175,112.8ZM227.2,46.06q0-15.975,11.182-23.963T265.54,14.11q15.975,0,26.98,7.988t11,23.963q0,15.975-11,23.607T265.54,77.3q-15.975,0-27.158-7.632T227.2,46.06Zm74.55,206.965a22.4,22.4,0,0,0,.533,5.325,6.452,6.452,0,0,0,2.307,3.55,12.462,12.462,0,0,0,5.325,2.13q3.55.71,9.585,1.42V269H214.775v-3.55q6.035-.71,9.585-1.42a12.462,12.462,0,0,0,5.325-2.13,6.452,6.452,0,0,0,2.307-3.55,22.4,22.4,0,0,0,.533-5.325V116.35a41.987,41.987,0,0,0-.533-7.455,7.655,7.655,0,0,0-2.307-4.437,12.411,12.411,0,0,0-5.325-2.485,79.715,79.715,0,0,0-9.585-1.6v-3.55L298.2,87.95h3.55Zm110.05-21.3a53.569,53.569,0,0,0,3.2,19.525q3.2,8.165,14.555,8.165a25.447,25.447,0,0,0,13.135-3.55,103.873,103.873,0,0,0,10.65-7.1l1.065,2.485a93.755,93.755,0,0,1-30.708,15.975A112.177,112.177,0,0,1,390.5,272.55q-21.3,0-34.612-9.94t-13.313-32.66V95.05h-17.75V93.275l17.75-1.775L408.25,38.25h3.55V91.5h37.275v3.55H411.8ZM585.75,144.75a154.523,154.523,0,0,0-10.295-18.638A139.22,139.22,0,0,0,562.5,108.895a62.435,62.435,0,0,0-15.087-12.6A32.594,32.594,0,0,0,530.725,91.5q-19.525,0-19.525,18.815a28.27,28.27,0,0,0,6.568,18.815,76.3,76.3,0,0,0,16.508,14.378q9.94,6.567,21.3,13.135a168.851,168.851,0,0,1,21.3,14.555,71.614,71.614,0,0,1,16.508,18.815q6.568,10.828,6.568,25.738,0,25.56-20.057,41.18t-56.268,15.62a148.881,148.881,0,0,1-15.265-.887q-8.52-.888-17.217-2.663t-16.508-3.9a63.739,63.739,0,0,1-13.135-4.97L457.95,212.2h3.55q9.23,28.045,25.915,42.423T525.4,269q12.07,0,19.347-5.325t7.278-15.975a23.726,23.726,0,0,0-6.922-16.863,84.008,84.008,0,0,0-17.04-13.49q-10.117-6.212-22.187-12.78A127.086,127.086,0,0,1,483.688,189.3a82.418,82.418,0,0,1-17.04-20.235q-6.922-11.537-6.922-27.868a53.115,53.115,0,0,1,3.9-20.235,45.217,45.217,0,0,1,12.425-17.04q8.52-7.455,22.01-11.715t32.66-4.26q6.39,0,13.668.71t14.732,2.13A134.315,134.315,0,0,1,573.5,94.34a95.5,95.5,0,0,1,12.247,4.615l3.55,45.8Z" transform="translate(0 111)"/>
    </clipPath>
  </defs>
  <g id="learning_in_bits" data-name="learning in bits" transform="translate(-21.997 -258.062)">
    <g id="Mask_Group_2" data-name="Mask Group 2" transform="translate(21.997 233.202)" clip-path="url(#clip-path)">
      <path id="Path_1" data-name="Path 1" d="M704.48,277.5C452.705-86.834,67.078-74.7,67.078-74.7c-518.8,87.065-223.934,200.473-223.934,200.473,147.263,72.764,65.53,394.309,65.53,394.309-12.582,280.436,269.9,322.811,269.9,322.811s203.894,115.847,466.54-114.208S704.48,277.5,704.48,277.5ZM548.452,482.454s-50.631-7.481-103.956-46.116c.179,3.087.349,6.231.506,9.454,0,0-15.35,167.3-193.106,250.622,0,0-110.611,72.358-200.1-57.024S25.523,430.06,25.523,430.06s23.983-83.089,105.209-95.842c-1.158-26.812-8.384-53.389-30.167-64.151,0,0-90.282-34.728,49.3-63.818-4.917-10.158-12.069-18.473-22.246-23.5,0,0-106.716-41.045,81.045-72.555,0,0,97.821-3.075,183.143,73.3q5.415-3.747,11.545-7.389c103.86-61.583,165.72-10.047,165.72-10.047s93.233,31.545,71.085,125.4c0,0-48.252,103.5-2.879,137.038C637.278,428.488,730.186,484.755,548.452,482.454Z" transform="translate(74.026 -120.468)" fill="#6e1ae6"/>
      <path id="Path_2" data-name="Path 2" d="M1002.307,555.884c-45.373-33.542,2.879-137.038,2.879-137.038C1027.334,325,934.1,293.45,934.1,293.45s-61.86-51.536-165.72,10.047q-6.135,3.638-11.545,7.389a305.293,305.293,0,0,1,47.545,54.17s61.288,66.672-.3,141.619c2.286,15.8,4.142,34.661,5.44,57.06C862.849,602.369,913.48,609.85,913.48,609.85,1095.215,612.151,1002.307,555.884,1002.307,555.884Z" transform="translate(-291.003 -247.864)" fill="#ff1400"/>
      <path id="Path_3" data-name="Path 3" d="M583.048,416.714c16.864-12.464,39.456-10.651,51.032,69.355,61.584-74.947.3-141.619.3-141.619a305.3,305.3,0,0,0-47.545-54.17c-85.322-76.372-183.143-73.3-183.143-73.3-187.762,31.51-81.045,72.555-81.045,72.555,10.178,5.028,17.33,13.343,22.246,23.5,8.405-1.752,17.635-3.483,27.777-5.185C372.668,307.852,496.508,303.962,583.048,416.714Z" transform="translate(-121 -227.258)" fill="#01cfec"/>
      <path id="Path_4" data-name="Path 4" d="M547.017,494.444s9.156-16.306,21.265-25.255C481.742,356.437,357.9,360.328,357.9,360.328c-10.143,1.7-19.372,3.434-27.777,5.186-139.582,29.09-49.3,63.818-49.3,63.818,21.783,10.763,29.009,37.339,30.167,64.151,15.974-2.508,34.162-2.3,54.817,1.805C365.808,495.288,506.282,552.946,547.017,494.444Z" transform="translate(-106.234 -279.733)" fill="#17f3af"/>
      <path id="Path_5" data-name="Path 5" d="M529.018,528.762c-12.109,8.948-21.265,25.255-21.265,25.255-40.735,58.5-181.21.844-181.21.844-20.655-4.1-38.843-4.313-54.817-1.805C190.5,565.808,166.517,648.9,166.517,648.9s-63.206,79.947,26.278,209.33,200.1,57.024,200.1,57.024C570.646,831.93,586,664.63,586,664.63c-.157-3.223-.326-6.367-.506-9.454-1.3-22.4-3.154-41.255-5.44-57.06C568.473,518.112,545.882,516.3,529.018,528.762Z" transform="translate(-66.969 -339.307)" fill="#ffd900"/>
      <path id="Path_6" data-name="Path 6" d="M-106.982,156.762c-12.109,8.948-21.265,25.255-21.265,25.255-40.735,58.5-181.21.844-181.21.844-20.655-4.1-38.842-4.313-54.817-1.805C-445.5,193.808-469.483,276.9-469.483,276.9s-63.206,79.948,26.278,209.33,200.1,57.024,200.1,57.024C-65.354,459.93-50,292.63-50,292.63c-.157-3.223-.326-6.367-.506-9.454-1.3-22.4-3.154-41.255-5.44-57.06C-67.527,146.112-90.118,144.3-106.982,156.762Z" transform="translate(165.854 -203.127)" fill="#28086f"/>
    </g>
  </g>
</svg>
